HIERARCHY
ROOT Hips
{
	OFFSET -1.602300 6.242603 43.997101
	CHANNELS 6 Xposition Yposition Zposition Zrotation Xrotation Yrotation
	JOINT Chest
	{
		OFFSET -0.204900 1.598101 7.917301
		CHANNELS 6 Xposition Yposition Zposition Zrotation Xrotation Yrotation
		JOINT Chest2
		{
			OFFSET 0.000000 0.000000 3.404099
			CHANNELS 6 Xposition Yposition Zposition Zrotation Xrotation Yrotation
			JOINT Neck
			{
				OFFSET 0.000000 0.000000 7.928600
				CHANNELS 6 Xposition Yposition Zposition Zrotation Xrotation Yrotation
				JOINT Head
				{
					OFFSET 0.000000 0.000000 2.173897
					CHANNELS 6 Xposition Yposition Zposition Zrotation Xrotation Yrotation
					End Site
					{
						OFFSET 0.000000 0.000001 10.404503
					}
				}
			}
			JOINT LeftCollar
			{
				OFFSET 2.833800 -1.396299 4.843300
				CHANNELS 6 Xposition Yposition Zposition Zrotation Xrotation Yrotation
				JOINT LeftShoulder
				{
					OFFSET 4.363600 0.000000 0.000000
					CHANNELS 6 Xposition Yposition Zposition Zrotation Xrotation Yrotation
					JOINT LeftElbow
					{
						OFFSET 0.000000 -0.000001 -10.306900
						CHANNELS 6 Xposition Yposition Zposition Zrotation Xrotation Yrotation
						JOINT LeftWrist
						{
							OFFSET 0.000000 -0.000001 -12.404900
							CHANNELS 6 Xposition Yposition Zposition Zrotation Xrotation Yrotation
							End Site
							{
								OFFSET 0.000000 0.000000 -2.173901
							}
						}
					}
				}
			}
			JOINT RightCollar
			{
				OFFSET -2.354800 -1.897200 5.063099
				CHANNELS 6 Xposition Yposition Zposition Zrotation Xrotation Yrotation
				JOINT RightShoulder
				{
					OFFSET -4.375800 0.000000 0.000000
					CHANNELS 6 Xposition Yposition Zposition Zrotation Xrotation Yrotation
					JOINT RightElbow
					{
						OFFSET 0.000000 -0.000001 -10.005001
						CHANNELS 6 Xposition Yposition Zposition Zrotation Xrotation Yrotation
						JOINT RightWrist
						{
							OFFSET 0.000000 -0.000001 -13.174900
							CHANNELS 6 Xposition Yposition Zposition Zrotation Xrotation Yrotation
							End Site
							{
								OFFSET 0.000000 0.000000 -2.173901
							}
						}
					}
				}
			}
		}
	}
	JOINT LeftHip
	{
		OFFSET 2.240600 0.386800 -2.614101
		CHANNELS 6 Xposition Yposition Zposition Zrotation Xrotation Yrotation
		JOINT LeftKnee
		{
			OFFSET 0.000000 -0.000001 -18.592899
			CHANNELS 6 Xposition Yposition Zposition Zrotation Xrotation Yrotation
			JOINT LeftAnkle
			{
				OFFSET 0.000000 -0.000001 -18.765800
				CHANNELS 6 Xposition Yposition Zposition Zrotation Xrotation Yrotation
				End Site
				{
					OFFSET 0.000000 -8.655000 0.000000
				}
			}
		}
	}
	JOINT RightHip
	{
		OFFSET -2.014900 -0.220900 -2.615898
		CHANNELS 6 Xposition Yposition Zposition Zrotation Xrotation Yrotation
		JOINT RightKnee
		{
			OFFSET 0.000000 -0.000001 -18.633900
			CHANNELS 6 Xposition Yposition Zposition Zrotation Xrotation Yrotation
			JOINT RightAnkle
			{
				OFFSET 0.000000 -0.000001 -18.285101
				CHANNELS 6 Xposition Yposition Zposition Zrotation Xrotation Yrotation
				End Site
				{
					OFFSET 0.000000 -7.524500 0.000000
				}
			}
		}
	}
}
MOTION
Frames: 6
Frame Time: 0.041667
-6.835702 24.705097 8.138107 12.621533 13.974722 -18.125644 -0.204901 1.598099 7.917305 19.590919 7.141712 -7.350868 0.000000 -0.000001 3.404098 -2.773366 -15.737251 -1.303795 -0.000002 -0.000001 7.928604 -43.349602 -16.674932 31.197511 0.000000 -0.000002 2.173898 -5.591683 -2.400225 -4.857002 2.833801 -1.396301 4.843310 4.450348 10.307928 16.171514 4.363595 -0.000002 0.000004 -1.663423 23.370028 -86.462504 -0.000001 0.000006 -10.306902 578.905524 -147.441053 562.507715 0.000001 -0.000000 -12.404897 57.052174 358.789537 -341.764115 -2.354802 -1.897199 5.063107 10.420292 9.752969 -5.217617 -4.375795 0.000012 -0.000003 61.170034 -9.245739 98.538825 -0.000009 0.000004 -10.004999 -568.552487 -144.733252 -586.440261 -0.000006 0.000004 -13.174896 -192.105463 -150.416694 140.559897 2.240597 0.386802 -2.614102 132.958307 -27.479550 98.715256 -0.000004 0.000001 -18.592890 -170.708229 58.167715 198.068779 0.000001 0.000001 -18.765799 -34.311469 21.276437 -3.533072 -2.014897 -0.220898 -2.615900 -127.792621 -13.237322 -118.359733 -0.000001 0.000004 -18.633886 179.679792 24.678640 -175.587061 -0.000004 -0.000003 -18.285086 -20.283997 31.238253 -202.625007
-6.837502 24.699802 8.139908 12.656505 14.022745 -18.138802 -0.204901 1.598097 7.917309 19.747984 7.111084 -7.430354 0.000001 0.000002 3.404104 -2.839035 -15.732969 -1.304426 -0.000004 0.000001 7.928605 -43.381544 -16.838003 31.250540 -0.000002 0.000004 2.173896 -5.631241 -2.373334 -4.965086 2.833800 -1.396298 4.843307 4.429857 10.262763 16.283299 4.363593 0.000000 -0.000003 -1.622977 23.454572 -86.757268 -0.000000 0.000006 -10.306901 579.073929 -147.562795 562.558258 0.000001 0.000001 -12.404901 56.678590 359.155525 -341.463915 -2.354803 -1.897202 5.063107 10.328710 9.632030 -5.049304 -4.375794 0.000010 -0.000007 61.369482 -9.351529 98.441918 -0.000005 0.000005 -10.004995 -568.406867 -144.818124 -586.169239 -0.000007 0.000005 -13.174900 -192.414174 -150.473166 139.952065 2.240599 0.386798 -2.614104 132.952474 -27.521129 98.743300 -0.000001 -0.000001 -18.592894 -170.612252 58.194175 198.063000 0.000001 -0.000001 -18.765799 -34.288380 21.302271 -3.592158 -2.014897 -0.220903 -2.615903 -127.812961 -13.179907 -118.400154 -0.000001 0.000002 -18.633881 179.696963 24.670761 -175.582512 -0.000006 -0.000003 -18.285086 -20.292478 31.234920 -202.618272
-6.839503 24.694502 8.141811 12.698530 14.054053 -18.143166 -0.204901 1.598104 7.917306 19.939523 7.091630 -7.533072 -0.000000 0.000000 3.404100 -2.919116 -15.726089 -1.304709 0.000005 0.000002 7.928599 -43.463140 -17.042845 31.326062 -0.000001 0.000003 2.173896 -5.645889 -2.339756 -5.095170 2.833805 -1.396298 4.843303 4.354021 10.247662 16.406212 4.363598 0.000003 0.000004 -1.597906 23.524102 -87.037688 0.000001 0.000007 -10.306899 579.275665 -147.685943 562.623446 0.000001 0.000001 -12.404892 56.392268 359.380648 -341.198220 -2.354799 -1.897199 5.063097 10.249985 9.518224 -4.915064 -4.375793 0.000010 -0.000002 61.513852 -9.410713 98.393192 -0.000008 0.000002 -10.005000 -568.291847 -144.877314 -585.953569 -0.000005 0.000005 -13.174893 -192.716041 -150.548052 139.416510 2.240599 0.386806 -2.614097 132.931737 -27.588536 98.766181 -0.000000 -0.000001 -18.592892 -170.506069 58.221926 198.056553 0.000001 -0.000001 -18.765799 -34.267216 21.327218 -3.648269 -2.014897 -0.220898 -2.615900 -127.840241 -13.115392 -118.424566 -0.000001 0.000003 -18.633883 179.716634 24.661774 -175.574944 -0.000005 -0.000003 -18.285086 -20.301672 31.232437 -202.608655
-6.841702 24.689507 8.143906 12.744378 14.076017 -18.143250 -0.204902 1.598099 7.917307 20.121244 7.093745 -7.630250 -0.000000 0.000000 3.404100 -2.990704 -15.740977 -1.306305 0.000003 -0.000000 7.928596 -43.543696 -17.238392 31.367504 -0.000000 -0.000002 2.173901 -5.667195 -2.312884 -5.175742 2.833799 -1.396300 4.843305 4.310462 10.240661 16.489620 4.363594 0.000003 -0.000001 -1.640445 23.560326 -87.295425 -0.000002 0.000004 -10.306896 579.441557 -147.824364 562.726008 0.000005 0.000002 -12.404896 56.169413 359.432968 -340.955448 -2.354801 -1.897198 5.063106 10.084580 9.366285 -4.824700 -4.375795 0.000012 -0.000008 61.772135 -9.343725 98.294980 -0.000005 -0.000000 -10.004996 -568.223163 -144.976844 -585.714840 -0.000005 0.000003 -13.174898 -192.950085 -150.627514 138.958573 2.240601 0.386806 -2.614104 132.902545 -27.659099 98.784131 -0.000002 0.000003 -18.592892 -170.402237 58.245702 198.047906 0.000001 0.000002 -18.765799 -34.248054 21.350261 -3.702157 -2.014897 -0.220896 -2.615901 -127.871182 -13.049545 -118.438622 -0.000001 0.000001 -18.633884 179.736592 24.653218 -175.564221 -0.000005 -0.000004 -18.285084 -20.310315 31.230476 -202.598697
-6.843903 24.684805 8.146111 12.789745 14.096408 -18.144181 -0.204901 1.598101 7.917309 20.255770 7.116076 -7.692892 0.000001 0.000002 3.404104 -3.038020 -15.781060 -1.309483 0.000006 -0.000000 7.928601 -43.620460 -17.394629 31.376543 -0.000002 0.000001 2.173901 -5.685194 -2.302799 -5.213090 2.833802 -1.396300 4.843300 4.354798 10.223784 16.528778 4.363595 -0.000001 -0.000003 -1.755038 23.584961 -87.559753 0.000002 0.000002 -10.306898 579.563899 -147.974273 562.868731 0.000006 0.000002 -12.404896 56.046036 359.343656 -340.747237 -2.354800 -1.897200 5.063098 9.848027 9.193893 -4.816196 -4.375794 0.000011 -0.000002 61.992088 -9.177350 98.253070 -0.000004 0.000006 -10.004998 -568.259772 -144.995545 -585.625009 -0.000007 0.000006 -13.174896 -193.171246 -150.696062 138.562217 2.240600 0.386802 -2.614100 132.870976 -27.725628 98.796835 -0.000001 0.000000 -18.592897 -170.298568 58.263918 198.036841 0.000001 -0.000000 -18.765799 -34.233130 21.369587 -3.750118 -2.014897 -0.220899 -2.615901 -127.900155 -12.980504 -118.451026 -0.000001 -0.000001 -18.633883 179.759473 24.644200 -175.550806 -0.000006 -0.000004 -18.285084 -20.319420 31.228547 -202.587550
-6.846102 24.680702 8.148006 12.834188 14.121405 -18.150152 -0.204899 1.598099 7.917309 20.297179 7.143995 -7.699877 -0.000000 0.000001 3.404103 -3.042382 -15.840001 -1.313743 0.000003 -0.000000 7.928599 -43.673418 -17.481140 31.311834 -0.000002 0.000001 2.173906 -5.696185 -2.320056 -5.175738 2.833800 -1.396301 4.843304 4.560941 10.470719 16.508617 4.363591 -0.000002 -0.000002 -2.045743 23.368987 -87.842687 0.000003 0.000003 -10.306894 579.643184 -148.132706 563.034678 0.000002 0.000001 -12.404891 55.945492 359.240794 -340.538069 -2.354801 -1.897199 5.063103 9.688961 9.098362 -4.887706 -4.375795 0.000010 -0.000004 62.263636 -8.988443 98.403956 -0.000008 0.000005 -10.004997 -568.362007 -145.139799 -585.621403 -0.000005 0.000005 -13.174898 -193.399566 -150.756045 138.181380 2.240599 0.386802 -2.614102 132.840814 -27.780763 98.807046 0.000001 -0.000001 -18.592894 -170.197741 58.275925 198.027934 0.000002 -0.000000 -18.765797 -34.218114 21.388218 -3.802860 -2.014896 -0.220900 -2.615899 -127.926779 -12.909974 -118.469973 -0.000000 0.000000 -18.633884 179.784676 24.635031 -175.536312 -0.000005 -0.000006 -18.285084 -20.328456 31.226566 -202.576034
